<svg width="35" height="35" viewBox="0 0 35 35" fill="none" xmlns="http://www.w3.org/2000/svg">
<path d="M5.46875 17.5H29.5313M5.46875 22.9688H29.5313M5.46875 28.4375H29.5313M8.20313 6.5625H26.7969C27.5221 6.5625 28.2176 6.85059 28.7304 7.36338C29.2432 7.87617 29.5313 8.57167 29.5313 9.29688C29.5313 10.0221 29.2432 10.7176 28.7304 11.2304C28.2176 11.7432 27.5221 12.0313 26.7969 12.0313H8.20313C7.47792 12.0313 6.78242 11.7432 6.26963 11.2304C5.75684 10.7176 5.46875 10.0221 5.46875 9.29688C5.46875 8.57167 5.75684 7.87617 6.26963 7.36338C6.78242 6.85059 7.47792 6.5625 8.20313 6.5625Z" stroke="black" stroke-width="1.5" stroke-linecap="round" stroke-linejoin="round"/>
</svg>
